<svg width="72" height="72" xmlns="http://www.w3.org/2000/svg" xmlns:xlink="http://www.w3.org/1999/xlink" xml:space="preserve" overflow="hidden"><g transform="translate(-324 -190)"><path d="M388.5 208.005 372 208.005 372 203.5C371.998 201.43 370.32 199.752 368.25 199.75L354.75 199.75C352.68 199.752 351.002 201.43 351 203.5L351 208.005 334.5 208.005C332.845 208.011 331.505 209.351 331.5 211.005L331.5 247.017C331.505 248.671 332.845 250.011 334.5 250.017L388.5 250.017C390.155 250.011 391.495 248.671 391.5 247.017L391.5 211.006C391.495 209.351 390.155 208.011 388.5 208.005ZM352.5 203.5C352.5 202.257 353.507 201.25 354.75 201.25L368.25 201.25C369.493 201.25 370.5 202.257 370.5 203.5L370.5 208 352.5 208ZM334.5 209.505 388.5 209.505C389.328 209.505 390 210.177 390 211.005L390 224.5 366.75 224.5 366.75 221.5 356.25 221.5 356.25 224.5 333 224.5 333 211.006C333 210.178 333.671 209.506 334.499 209.505 334.499 209.505 334.5 209.505 334.5 209.505ZM365.25 223 365.25 228.25C365.25 229.078 364.578 229.75 363.75 229.75L359.25 229.75C358.422 229.75 357.75 229.078 357.75 228.25L357.75 223ZM388.5 248.517 334.5 248.517C333.672 248.517 333 247.846 333 247.017L333 226 356.25 226 356.25 228.25C356.25 229.907 357.593 231.25 359.25 231.25L363.75 231.25C365.407 231.25 366.75 229.907 366.75 228.25L366.75 226 390 226 390 247.017C390 247.845 389.329 248.517 388.501 248.517 388.501 248.517 388.5 248.517 388.5 248.517Z" fill="#FFFFFF"/></g></svg>