<svg width="96" height="96" xmlns="http://www.w3.org/2000/svg" xmlns:xlink="http://www.w3.org/1999/xlink" xml:space="preserve" overflow="hidden"><g transform="translate(-312 -178)"><path d="M403.612 217.7 360.006 202.1 316.4 217.7 325 220.719 325 238.1C325 238.652 325.448 239.1 326 239.1 326.552 239.1 327 238.652 327 238.1L327 221.42 334.038 223.89 334.038 238.29C334.038 244.15 345.93 249.1 360.006 249.1 374.082 249.1 385.975 244.15 385.975 238.292L385.975 223.89ZM360.006 204.225 397.6 217.674C397.615 217.679 397.615 217.687 397.6 217.692L360.006 230.882 322.416 217.692C322.401 217.687 322.401 217.679 322.416 217.674ZM383.975 238.292C383.975 242.365 373.505 247.1 360.006 247.1 346.507 247.1 336.038 242.365 336.038 238.292L336.038 224.592 360.006 233 383.975 224.59Z" fill="#FFFFFF"/></g></svg>